<svg width="48" height="48" viewBox="0 0 48 48" fill="none" xmlns="http://www.w3.org/2000/svg">
<g id="Google + (Google Plus)">
<g id="Google + (Google Plus)_2">
<rect id="Rectangle" width="48" height="48" rx="24" fill="#EA4335"/>
<g id="Group">
<path id="Vector" d="M35.4517 19.3718C36.473 19.3718 37.4939 19.3718 38.5199 19.3718C38.5255 20.3982 38.5353 21.4299 38.5409 22.4559C39.5669 22.4661 40.5985 22.4713 41.625 22.4764C41.625 23.5029 41.625 24.5238 41.625 25.5503C40.599 25.5554 39.5674 25.5605 38.5409 25.5657C38.5306 26.5973 38.5255 27.6233 38.5199 28.6549C37.4939 28.6498 36.4669 28.6549 35.4461 28.6549C35.4362 27.6233 35.4362 26.5973 35.4255 25.5708C34.3995 25.5601 33.3679 25.5554 32.3414 25.5498C32.3414 24.5233 32.3414 23.5024 32.3414 22.476C33.3679 22.4708 34.3944 22.4657 35.4255 22.4554C35.4306 21.4299 35.4409 20.3982 35.4517 19.3718Z" fill="white"/>
<path id="Vector_2" d="M7.63163 24.0138C7.42008 18.4438 12.2989 13.2965 17.8745 13.2297C20.7162 12.9873 23.4809 14.0909 25.6314 15.8907C24.7493 16.8607 23.8517 17.8194 22.8929 18.717C20.9997 17.5668 18.7202 16.6902 16.5075 17.4687C12.9387 18.4849 10.7774 22.6987 12.0981 26.19C13.1918 29.8364 17.627 31.8376 21.1029 30.3058C22.9027 29.6613 24.0894 28.0006 24.6101 26.2162C22.5473 26.1751 20.4841 26.2008 18.4213 26.1438C18.4162 24.9165 18.4111 23.6939 18.4162 22.4666C21.8562 22.4615 25.3013 22.4512 28.7464 22.482C28.9579 25.4891 28.5143 28.7072 26.5594 31.1207C23.8825 34.5658 18.9369 35.5769 14.9137 34.2254C10.6438 32.8229 7.5387 28.5213 7.63163 24.0138Z" fill="white"/>
</g>
</g>
</g>
</svg>
